<?xml version="1.0" encoding="utf-8"?>
<!-- Generator: Adobe Illustrator 16.0.0, SVG Export Plug-In . SVG Version: 6.00 Build 0)  -->
<!DOCTYPE svg PUBLIC "-//W3C//DTD SVG 1.1//EN" "http://www.w3.org/Graphics/SVG/1.1/DTD/svg11.dtd">
<svg version="1.1" id="圖層_1" xmlns="http://www.w3.org/2000/svg" xmlns:xlink="http://www.w3.org/1999/xlink" x="0px" y="0px"
	 width="800px" height="800px" viewBox="0 0 800 800" enable-background="new 0 0 800 800" xml:space="preserve">
<g>
	<path fill="#CCCCCC" d="M259.212,443.956l-14.692,19.785c-40.641-23.019-70.668-52.846-90.084-89.487v101.902H129.95V373.995
		c-20.362,35.261-50.39,64.659-90.084,88.194l-15.208-19.914c37.458-20.863,66.027-47.762,85.702-80.695H30.2v-23.665h99.75v-41.252
		H39.608v-23.019h90.342v-28.967h24.486v28.967h90.6v23.019h-90.6v41.252h98.977v23.665h-80.161
		C188.889,392.875,217.541,420.336,259.212,443.956z"/>
	<path fill="#CCCCCC" d="M521.087,469.819H290.915v-23.794h94.724V244.936h24.615v79.53h99.492v23.277h-99.492v98.282h110.833
		V469.819z"/>
	<path fill="#CCCCCC" d="M589.133,413.695c-3.436,24.486-8.892,45.391-16.367,62.719l-18.687-8.146
		c7.39-18.881,12.673-38.58,15.852-59.098L589.133,413.695z M651.251,294.206c-19.331,35.261-39.393,63.71-60.185,85.35
		c6.785-1.119,16.193-3.405,28.224-6.854c-1.462-4.655-3.138-8.664-5.026-12.026l17.141-6.336
		c7.301,14.399,12.415,28.365,15.336,41.899l-17.655,6.336c-1.031-5.431-2.019-9.311-2.964-11.639
		c-19.418,5.432-41.156,10.087-65.211,13.967l-4.77-18.234c16.065-13.792,31.231-31.25,45.494-52.374
		c-11.17,2.069-24.186,4.009-39.05,5.819l-4.253-16.682c17.869-21.034,33.592-47.977,47.168-80.823l20.879,8.018
		c-9.365,21.812-21.78,43.667-37.246,65.564c9.795-0.86,18.43-1.983,25.904-3.362c4.981-7.414,10.008-16.249,15.078-26.51
		L651.251,294.206z M624.574,465.552l-20.878,4.268c0-17.931-2.19-36.552-6.573-55.865l19.203-4.268
		C620.622,429.258,623.369,447.881,624.574,465.552z M653.571,433.352l-17.141,6.337c-2.405-10.431-6.187-20.604-11.341-30.519
		l17.141-5.044C646.611,413.611,650.393,423.352,653.571,433.352z M698.678,370.762c1.46,34.573-14.435,67.849-47.685,99.833
		l-15.594-14.742c22.854-19.482,36.644-40.865,41.369-64.142h-26.677v-20.949H698.678z M789.02,450.033l-15.852,20.045
		c-16.154-12.758-31.188-31.036-45.106-54.831v39.442c0,7.934-3.094,13.662-9.279,17.199c-6.187,3.534-18.603,5.302-37.245,5.302
		l-6.314-24.054c11.771,0.346,19.632,0.369,23.584,0.065c3.95-0.302,5.928-1.746,5.928-4.332v-94.531h-49.359v-87.677h32.734
		c4.812-7.156,8.807-15.085,11.985-23.794l22.94,5.043c-2.319,6.64-5.241,12.888-8.764,18.751h58.381v87.677h-44.591v20.432
		c1.888,3.795,4.683,8.664,8.377,14.613c7.646-5.604,16.883-14.18,27.708-25.734l16.109,14.613
		c-8.592,9.311-19.331,19.184-32.219,29.613C757.916,421.67,771.576,435.725,789.02,450.033z M749.97,300.931V285.8h-71.525v15.13
		H749.97z M749.97,335.588V319.94h-71.525v15.647H749.97z"/>
</g>
<g>
</g>
<g>
</g>
<g>
</g>
<g>
</g>
<g>
</g>
<g>
</g>
<g>
</g>
<g>
</g>
<g>
</g>
<g>
</g>
<g>
</g>
<g>
</g>
<g>
</g>
<g>
</g>
<g>
</g>
</svg>
