<?xml version="1.0" encoding="utf-8"?>
<!-- Generator: Adobe Illustrator 16.0.0, SVG Export Plug-In . SVG Version: 6.00 Build 0)  -->
<!DOCTYPE svg PUBLIC "-//W3C//DTD SVG 1.1//EN" "http://www.w3.org/Graphics/SVG/1.1/DTD/svg11.dtd">
<svg version="1.1" id="圖層_1" xmlns="http://www.w3.org/2000/svg" xmlns:xlink="http://www.w3.org/1999/xlink" x="0px" y="0px"
	 width="800px" height="800px" viewBox="0 0 800 800" enable-background="new 0 0 800 800" xml:space="preserve">
<g>
	<path fill="#CCCCCC" d="M259.886,443.393l-14.734,19.774c-40.757-23.005-70.872-52.816-90.343-89.438v101.845h-24.557V373.47
		c-20.421,35.241-50.536,64.624-90.343,88.146l-15.251-19.903c37.566-20.852,66.217-47.735,85.949-80.65H30.216v-23.652h100.037
		v-41.229H39.651v-23.006h90.602v-28.951h24.557v28.951h90.86v23.006h-90.86v41.229h99.261v23.652h-80.391
		C189.361,392.34,218.095,419.785,259.886,443.393z"/>
	<path fill="#CCCCCC" d="M526.004,335.343l-14.347,18.741c-22.404-11.029-40.152-22.314-53.249-33.862v17.707H358.372v-14.734
		c-19.561,13.786-37.481,24.084-53.767,30.89l-13.7-18.482c18.525-8.186,33.171-16.026,43.943-23.522
		c-7.755-5.687-16.847-11.329-27.271-16.931l15.122-16.931c12.063,7.065,22.101,13.745,30.114,20.033
		c9.648-8.098,17.791-17.532,24.427-28.305h-67.079v-20.679h93.186v20.679c-7.928,16.718-20.336,32.441-37.222,47.175h89.179
		c-19.646-18.954-34.12-41.66-43.427-68.113l20.68-6.333c3.533,9.133,7.839,17.881,12.925,26.237
		c10.598-8.013,19.258-17.015,25.979-27.012l18.999,12.408c-8.271,11.891-19.128,22.833-32.57,32.829
		c3.016,3.963,6.635,7.929,10.857,11.891c10.598-8.186,21.109-19.042,31.535-32.57l18.482,12.278
		c-7.496,11.548-18.181,23.092-32.053,34.638C494.984,320.266,508.081,327.588,526.004,335.343z M520.446,470.534H296.463v-21.325
		h67.983c-3.705-7.152-8.1-14.477-13.184-21.973l16.932-10.598h-38.386v-63.072h157.551v63.072h-39.55l17.836,10.081
		c-3.018,7.237-6.721,14.733-11.115,22.489h65.916V470.534z M463.19,396.218v-22.489H354.106v22.489H463.19z M443.157,416.639
		h-70.181c6.805,11.548,12.622,22.404,17.448,32.57h38.127C434.239,438.525,439.105,427.67,443.157,416.639z"/>
	<path fill="#CCCCCC" d="M789.02,458.902l-18.482,17.577c-50.406-43.944-82.545-91.979-96.418-144.109
		c-17.577,60.229-51.698,107.619-102.362,142.171l-17.189-18.482c22.831-15.076,42.541-33.43,59.13-55.059
		c16.586-21.627,29.229-45.344,37.934-71.15c8.702-25.805,13.054-42.671,13.054-50.6l-0.775-5.299h-32.053v-23.523h54.283
		c2.326,50.838,12.362,92.088,30.114,123.753C734.004,405.847,758.259,434.087,789.02,458.902z"/>
</g>
<g>
</g>
<g>
</g>
<g>
</g>
<g>
</g>
<g>
</g>
<g>
</g>
<g>
</g>
<g>
</g>
<g>
</g>
<g>
</g>
<g>
</g>
<g>
</g>
<g>
</g>
<g>
</g>
<g>
</g>
</svg>
